<svg xmlns="http://www.w3.org/2000/svg" height="48" width="48"><path d="M21.5 26.5c.3.3.7.5 1.1.4.4 0 .8-.2 1.1-.5l3.6-3.6 3.6 3.6c.3.3.7.5 1.1.4.4 0 .8-.2 1.1-.5.3-.3.5-.7.4-1.1 0-.4-.2-.8-.5-1.1l-3.6-3.6 3.6-3.6c.3-.3.5-.7.4-1.1 0-.4-.2-.8-.5-1.1-.3-.3-.7-.5-1.1-.4-.4 0-.8.2-1.1.5l-3.6 3.6-3.6-3.6c-.3-.3-.7-.5-1.1-.4-.4 0-.8.2-1.1.5-.3.3-.5.7-.4 1.1 0 .4.2.8.5 1.1l3.6 3.6-3.6 3.6c-.3.3-.5.7-.4 1.1 0 .5.2.8.5 1.1zm-8.2 11.6c-.9 0-1.7-.3-2.4-1s-1-1.5-1-2.4V6.9c0-.9.3-1.7 1-2.4s1.5-1 2.4-1h27.8c.9 0 1.7.3 2.4 1s1 1.5 1 2.4v27.8c0 .9-.3 1.7-1 2.4s-1.5 1-2.4 1H13.3zm0-3.4h27.8V6.9H13.3v27.8zm-6.4 9.8c-.9 0-1.7-.3-2.4-1s-1-1.5-1-2.4V11.6c0-.5.2-.9.5-1.2.3-.3.7-.5 1.2-.5s.9.2 1.2.5c.3.3.5.7.5 1.2v29.5h29.5c.5 0 .9.2 1.2.5.3.3.5.7.5 1.2s-.2.9-.5 1.2c-.3.3-.7.5-1.2.5H6.9zm6.4-37.6v27.8V6.9z"/></svg>
