<?xml version="1.0" standalone="no"?>
<!DOCTYPE svg PUBLIC "-//W3C//DTD SVG 20010904//EN"
 "http://www.w3.org/TR/2001/REC-SVG-20010904/DTD/svg10.dtd">
<svg version="1.0" xmlns="http://www.w3.org/2000/svg"
 width="392.000000pt" height="392.000000pt" viewBox="0 0 392.000000 392.000000"
 preserveAspectRatio="xMidYMid meet">
<metadata>
Created by potrace 1.14, written by Peter Selinger 2001-2017
</metadata>
<g transform="translate(0.000000,392.000000) scale(0.100000,-0.100000)"
fill="#000000" stroke="none">
<path d="M575 3770 c-125 -13 -231 -85 -282 -188 l-28 -57 -5 -535 -5 -535
-108 -3 c-106 -3 -108 -3 -118 -29 -6 -16 -8 -215 -7 -530 3 -435 5 -505 18
-513 8 -5 61 -10 118 -10 l102 0 0 -452 c0 -508 5 -555 62 -641 18 -26 53 -61
78 -78 94 -63 7 -60 1581 -57 l1434 3 67 33 c79 38 128 92 160 171 22 55 23
65 26 539 l3 482 95 0 c53 0 104 5 115 10 18 10 19 27 19 528 0 390 -3 521
-12 530 -8 8 -48 12 -115 12 l-102 0 -3 533 -3 532 -30 58 c-37 74 -117 148
-193 179 l-57 23 -1370 1 c-753 1 -1402 -2 -1440 -6z m2800 -120 c67 -33 131
-99 163 -168 l27 -57 3 -479 c2 -264 -1 -482 -5 -486 -4 -4 -45 -5 -90 -3
l-81 5 -38 90 c-90 215 -266 449 -449 598 -76 62 -200 147 -254 175 -35 18
-35 18 -58 -9 -30 -35 -38 -71 -24 -102 10 -22 15 -24 46 -18 27 5 45 0 82
-22 202 -116 427 -370 534 -600 60 -129 82 -117 -201 -115 -135 1 -250 -2
-256 -6 -28 -20 -30 -65 -29 -550 1 -474 2 -503 20 -523 17 -19 29 -20 257
-20 131 0 238 -2 238 -5 0 -12 -68 -156 -104 -220 -102 -183 -286 -378 -447
-477 -50 -30 -65 -35 -86 -27 -13 5 -29 9 -34 9 -12 0 -11 -66 2 -114 10 -36
12 -38 41 -32 40 8 172 96 269 179 93 80 217 219 284 318 64 95 151 266 166
324 l11 45 105 0 104 0 -3 -447 c-3 -447 -3 -448 -26 -493 -43 -82 -128 -156
-202 -173 -14 -3 -632 -7 -1375 -8 -1464 -3 -1387 -6 -1472 53 -51 34 -85 77
-115 144 -22 49 -22 53 -19 479 1 236 5 433 7 437 3 5 46 8 95 8 l90 0 11 -32
c29 -86 145 -293 216 -388 181 -240 511 -496 553 -429 5 8 9 42 9 76 l0 62
-31 -11 c-24 -8 -38 -7 -63 5 -90 42 -310 253 -405 387 -46 64 -171 300 -171
323 0 4 106 7 235 7 219 0 236 1 254 19 19 19 19 35 15 448 -3 235 -5 467 -4
515 0 67 -4 90 -16 103 -15 14 -47 16 -267 14 -184 -1 -252 2 -255 10 -7 20
116 252 181 343 121 169 229 272 386 368 50 31 55 32 89 20 32 -11 37 -11 49
6 7 10 13 29 13 42 0 29 -45 92 -65 92 -18 0 -175 -94 -241 -144 -209 -159
-399 -414 -504 -679 -25 -64 -30 -66 -125 -64 l-60 2 0 475 c0 430 2 480 18
525 25 70 64 123 121 162 96 66 6 62 1486 60 l1345 -2 50 -25z m-2380 -1335
l25 -24 0 -379 c0 -359 -1 -381 -19 -403 l-19 -24 -369 -1 c-202 0 -380 1
-396 4 -55 8 -57 24 -57 430 0 358 1 370 21 396 l20 26 385 0 385 0 24 -25z
m2744 -1 c20 -26 21 -38 21 -396 0 -387 -3 -415 -45 -432 -9 -3 -183 -6 -387
-6 l-370 0 -29 30 -30 29 3 381 3 382 24 19 c22 18 44 19 406 19 l384 0 20
-26z"/>
<path d="M586 3545 c-108 -37 -137 -144 -60 -220 32 -32 40 -35 93 -35 51 0
63 4 89 28 31 29 55 91 45 120 -17 54 -28 73 -50 88 -42 27 -77 33 -117 19z"/>
<path d="M3255 3545 c-72 -25 -109 -98 -86 -168 38 -114 196 -124 252 -15 24
48 24 71 -2 118 -35 62 -98 88 -164 65z"/>
<path d="M1270 3043 c-67 -35 -76 -91 -23 -153 36 -43 66 -53 106 -36 46 19
60 41 60 92 0 37 -5 51 -29 74 -39 38 -71 45 -114 23z"/>
<path d="M2515 3027 c-20 -16 -28 -35 -32 -68 -4 -38 -1 -50 22 -77 21 -26 34
-32 65 -32 49 0 76 23 99 85 22 58 16 77 -29 100 -43 22 -94 19 -125 -8z"/>
<path d="M1820 2404 c-156 -41 -293 -150 -360 -288 -36 -72 -41 -93 -49 -191
-20 -227 26 -373 157 -504 299 -297 787 -179 919 223 33 103 38 275 9 371 -57
191 -211 340 -402 390 -72 19 -201 18 -274 -1z m251 -174 c113 -35 216 -135
260 -250 17 -45 20 -72 17 -151 -3 -87 -7 -103 -41 -172 -165 -334 -622 -283
-733 82 -7 25 -14 71 -14 101 0 272 259 469 511 390z"/>
<path d="M1924 2156 c-3 -8 -4 -27 -2 -43 3 -26 7 -28 43 -28 l40 0 0 40 c0
39 -1 40 -38 43 -26 2 -39 -1 -43 -12z"/>
<path d="M1855 1947 c-44 -42 -45 -45 -45 -105 0 -57 3 -64 38 -100 49 -52
101 -62 166 -33 105 46 125 179 38 251 -31 26 -45 30 -94 30 -54 0 -60 -2
-103 -43z"/>
<path d="M1283 927 c-78 -79 -72 -123 21 -162 48 -20 67 -14 111 37 56 66 42
124 -42 167 -31 16 -31 16 -90 -42z"/>
<path d="M2536 955 c-22 -13 -43 -31 -49 -40 -15 -28 1 -79 39 -123 43 -51 70
-53 137 -12 68 43 64 71 -27 168 -35 37 -47 38 -100 7z"/>
<path d="M553 650 c-61 -36 -85 -130 -49 -185 43 -66 140 -86 195 -40 16 14
37 46 47 70 16 43 16 47 -1 91 -30 78 -120 109 -192 64z"/>
<path d="M3214 637 c-89 -82 -31 -237 89 -237 139 0 188 174 71 251 -18 12
-47 19 -77 19 -40 0 -53 -5 -83 -33z"/>
<path d="M1367 543 c-4 -3 -7 -30 -7 -59 0 -44 4 -55 21 -64 23 -13 1131 -16
1162 -4 14 5 17 19 17 70 l0 64 -593 0 c-327 0 -597 -3 -600 -7z"/>
<path d="M497 2272 c-13 -14 -17 -44 -19 -142 l-3 -125 -70 -3 c-75 -3 -95
-15 -95 -58 0 -34 27 -49 99 -54 62 -5 66 -6 66 -30 0 -24 -4 -25 -63 -30 -82
-7 -110 -38 -82 -91 9 -16 22 -19 80 -19 l70 0 0 -62 c0 -35 4 -68 8 -74 13
-21 52 -34 77 -28 39 10 55 41 55 106 l0 58 123 0 c133 0 167 11 167 53 0 48
-11 52 -155 55 l-135 4 0 29 0 29 125 0 c112 0 127 2 145 20 23 23 26 62 7 78
-8 7 -68 13 -143 14 l-129 3 -3 125 c-2 98 -6 128 -19 142 -21 24 -85 24 -106
0z"/>
<path d="M3262 2160 c-27 -11 -39 -37 -25 -58 7 -12 36 -16 144 -19 74 -1 152
-4 174 -5 37 -3 40 -1 43 25 3 24 -2 30 -40 47 -35 16 -65 19 -158 19 -63 0
-125 -4 -138 -9z"/>
<path d="M3319 2020 c-61 -11 -89 -26 -89 -49 0 -36 24 -44 107 -34 60 7 95 6
155 -5 85 -17 112 -9 106 32 -6 42 -173 76 -279 56z"/>
<path d="M3033 2003 c-12 -2 -33 -16 -47 -30 -47 -47 -47 -100 2 -153 23 -26
35 -31 76 -32 45 -1 53 3 83 36 53 58 37 143 -32 172 -35 14 -42 15 -82 7z"/>
<path d="M3337 1896 c-156 -56 -139 -272 25 -317 66 -17 119 -4 172 42 95 84
82 209 -28 264 -56 28 -111 31 -169 11z"/>
</g>
</svg>
