<?xml version="1.0" standalone="no"?>
<!DOCTYPE svg PUBLIC "-//W3C//DTD SVG 20010904//EN"
 "http://www.w3.org/TR/2001/REC-SVG-20010904/DTD/svg10.dtd">
<svg version="1.0" xmlns="http://www.w3.org/2000/svg"
 width="700.000000pt" height="700.000000pt" viewBox="0 0 700.000000 700.000000"
 preserveAspectRatio="xMidYMid meet">
<metadata>
Created by potrace 1.14, written by Peter Selinger 2001-2017
</metadata>
<g transform="translate(0.000000,700.000000) scale(0.100000,-0.100000)"
fill="#000000" stroke="none">
<path d="M3287 6990 c-570 -37 -1109 -205 -1592 -496 -405 -243 -779 -592
-1058 -987 -340 -480 -556 -1064 -618 -1672 -16 -154 -16 -516 0 -670 120
-1169 776 -2160 1810 -2736 625 -348 1421 -494 2146 -393 760 106 1443 444
1986 984 156 155 249 262 371 431 774 1062 879 2498 268 3665 -243 466 -578
860 -1000 1178 -514 387 -1119 623 -1755 685 -154 15 -416 20 -558 11z m612
-255 c215 -27 358 -59 563 -122 l117 -36 32 -133 c18 -74 36 -134 40 -134 4 0
37 41 74 90 37 50 70 90 74 90 17 0 321 -159 406 -212 235 -146 421 -296 621
-500 309 -315 536 -660 699 -1065 19 -48 35 -93 35 -100 0 -11 -126 -13 -673
-13 l-672 0 -76 103 c-178 238 -400 432 -650 566 l-76 41 -121 -49 -122 -50 0
99 0 99 -78 25 c-208 66 -492 96 -720 77 -214 -18 -213 -17 -235 -76 -10 -28
-22 -54 -27 -58 -4 -5 -32 7 -61 27 -30 20 -64 36 -76 36 -12 0 -60 -14 -108
-31 -209 -73 -380 -163 -555 -292 -121 -89 -325 -293 -419 -419 l-72 -98 -695
0 c-584 0 -694 2 -694 14 0 46 168 396 275 571 267 438 676 845 1120 1112 207
125 498 255 713 319 l93 28 79 -39 c44 -21 81 -37 83 -34 2 2 20 32 41 66 34
57 40 62 84 71 49 11 271 39 357 46 103 8 514 -4 624 -19z m-303 -1606 c104
-97 45 -259 -94 -259 -147 0 -199 188 -76 271 42 29 134 22 170 -12z m-802
-907 l98 -74 27 21 c163 131 326 198 526 216 153 14 371 -38 506 -121 l70 -44
167 118 c210 149 203 145 161 87 -20 -28 -77 -106 -127 -175 l-90 -124 47 -52
c89 -101 168 -260 195 -396 18 -89 21 -244 5 -333 l-11 -62 47 -73 c25 -40 45
-73 43 -75 -2 -1 -40 -14 -85 -29 -81 -27 -82 -27 -125 -94 -94 -146 -259
-280 -421 -342 -124 -48 -220 -63 -367 -57 -139 5 -238 31 -361 92 l-65 33
-65 -29 c-35 -15 -69 -29 -75 -29 -7 0 -14 36 -18 97 -7 95 -8 98 -48 142
-107 122 -186 303 -208 476 -25 199 30 427 143 595 l37 54 -29 31 c-32 34
-358 410 -381 439 -14 18 164 -111 404 -292z m-635 100 c19 -10 43 -34 53 -53
17 -32 18 -76 18 -762 0 -790 1 -771 -55 -815 l-28 -22 -908 0 -908 0 -12 42
c-23 88 -58 287 -74 420 -18 160 -21 511 -5 668 17 166 62 414 91 508 l11 32
891 0 c845 0 894 -1 926 -18z m4501 -24 c22 -81 59 -274 76 -403 25 -182 25
-608 0 -790 -16 -121 -55 -330 -74 -400 l-8 -30 -901 -3 -900 -2 -28 22 c-56
44 -55 25 -55 815 0 686 1 730 18 762 10 19 34 43 53 53 32 17 81 18 921 18
l887 0 11 -42z m-4764 -2005 c82 -112 251 -290 342 -361 l52 -41 48 14 c72 22
72 22 72 -43 l0 -59 108 -61 c191 -109 390 -183 612 -227 107 -22 174 -28 321
-32 184 -6 388 9 399 28 4 5 14 52 25 104 10 52 22 95 25 95 4 0 41 -22 81
-48 41 -26 91 -58 111 -70 l37 -23 98 37 c197 74 384 180 553 314 128 102 125
98 106 163 -9 30 -16 58 -16 61 0 3 35 6 78 6 l79 0 50 63 c28 34 68 87 89
117 21 30 43 58 49 62 5 4 310 8 678 8 542 0 667 -2 667 -13 0 -18 -59 -163
-118 -288 -219 -468 -590 -915 -1031 -1242 -185 -138 -477 -302 -686 -387
l-81 -32 -129 36 c-71 20 -132 36 -136 36 -3 0 5 -32 19 -70 14 -39 22 -73 19
-76 -10 -10 -226 -63 -342 -84 -201 -36 -363 -50 -585 -50 -342 0 -612 36
-911 124 l-55 16 -39 170 c-22 93 -42 167 -46 162 -4 -4 -29 -61 -55 -127 -26
-66 -50 -124 -54 -128 -17 -20 -392 161 -580 278 -403 254 -771 622 -1025
1025 -112 178 -305 580 -305 634 0 14 72 16 699 16 l698 0 79 -107z"/>
<path d="M1959 5992 c-155 -81 -159 -299 -9 -389 155 -93 343 12 343 192 0
176 -176 280 -334 197z"/>
<path d="M4840 6004 c-179 -78 -178 -343 2 -418 107 -45 237 1 290 103 60 115
19 249 -95 306 -59 29 -141 33 -197 9z"/>
<path d="M3438 4181 c-27 -24 -33 -36 -33 -71 0 -35 6 -47 33 -71 44 -40 93
-40 133 0 48 49 38 125 -21 156 -43 22 -76 18 -112 -14z"/>
<path d="M3405 3827 c-97 -33 -167 -94 -212 -185 -24 -50 -28 -68 -28 -147 1
-79 4 -97 30 -148 80 -161 269 -233 438 -168 79 31 157 109 188 188 33 85 32
189 -3 265 -59 126 -164 199 -298 205 -44 2 -91 -3 -115 -10z"/>
<path d="M1003 4225 c-18 -8 -42 -29 -53 -47 -19 -31 -20 -50 -20 -275 l0
-243 -131 0 c-152 0 -188 -11 -214 -67 -24 -49 -7 -106 38 -133 28 -17 51 -20
170 -20 l137 0 0 -60 0 -60 -131 0 c-102 0 -139 -4 -166 -17 -74 -35 -79 -141
-10 -183 28 -17 51 -20 170 -20 l137 0 0 -122 c0 -141 14 -178 75 -204 46 -19
73 -18 114 4 58 31 71 69 71 204 l0 118 250 0 c276 0 296 4 325 60 19 37 19
63 -1 101 -27 54 -57 59 -329 59 l-245 0 0 60 0 59 264 3 c264 3 264 3 290 27
34 32 43 84 22 128 -28 58 -53 63 -331 63 l-245 0 0 238 c0 266 -5 288 -71
324 -40 21 -72 22 -116 3z"/>
<path d="M5910 4154 c-197 -19 -270 -37 -289 -72 -27 -50 0 -114 52 -127 13
-4 43 -1 67 5 25 6 124 14 220 17 154 4 187 2 275 -17 165 -35 168 -35 199 -8
38 33 39 92 3 124 -58 50 -356 94 -527 78z"/>
<path d="M5925 3834 c-149 -20 -239 -47 -260 -77 -21 -30 -19 -83 5 -107 30
-30 61 -33 126 -13 46 14 92 18 209 18 138 0 156 -2 228 -28 92 -32 126 -34
155 -7 51 48 34 112 -38 147 -91 44 -323 81 -425 67z"/>
<path d="M5222 3725 c-63 -19 -107 -58 -138 -120 -23 -49 -26 -64 -21 -122 6
-77 37 -130 105 -177 35 -25 55 -31 110 -34 58 -3 74 0 122 25 99 51 146 154
120 265 -17 71 -93 149 -162 166 -58 15 -81 14 -136 -3z"/>
<path d="M5884 3507 c-72 -27 -110 -53 -154 -104 -90 -102 -109 -239 -52 -356
39 -78 92 -129 181 -171 61 -29 74 -31 171 -31 93 0 112 3 162 27 76 35 151
107 185 177 39 79 40 191 1 273 -34 73 -97 133 -178 172 -56 26 -78 31 -160
33 -80 3 -105 -1 -156 -20z"/>
<path d="M1950 1398 c-189 -114 -120 -400 100 -416 70 -5 120 10 166 51 126
110 94 318 -58 381 -21 9 -64 16 -96 16 -48 0 -67 -6 -112 -32z"/>
<path d="M4840 1414 c-179 -78 -178 -343 2 -418 57 -24 135 -20 195 9 114 57
155 191 95 306 -39 76 -111 119 -197 119 -33 -1 -76 -8 -95 -16z"/>
</g>
</svg>
